<svg width="83" height="95" viewBox="0 0 83 95" fill="none" xmlns="http://www.w3.org/2000/svg">
<path d="M64.8809 29.4913V23.593C64.8809 10.5837 54.297 0 41.2878 0C28.2785 0 17.6948 10.5837 17.6948 23.593V29.4913H0V79.6265C0 87.7704 6.60181 94.3722 14.7457 94.3722H67.83C75.9738 94.3722 82.5757 87.7704 82.5757 79.6265V29.4913H64.8809ZM29.4913 23.593C29.4913 17.0884 34.7832 11.7965 41.2878 11.7965C47.7925 11.7965 53.0844 17.0884 53.0844 23.593V29.4913H29.4913V23.593ZM58.9826 45.7115C56.5394 45.7115 54.5589 43.731 54.5589 41.2878C54.5589 38.8447 56.5394 36.8641 58.9826 36.8641C61.4258 36.8641 63.4063 38.8447 63.4063 41.2878C63.4063 43.731 61.4258 45.7115 58.9826 45.7115ZM23.593 45.7115C21.1499 45.7115 19.1694 43.731 19.1694 41.2878C19.1694 38.8447 21.1499 36.8641 23.593 36.8641C26.0362 36.8641 28.0167 38.8447 28.0167 41.2878C28.0167 43.731 26.0362 45.7115 23.593 45.7115Z" fill="#231A3C"/>
</svg>
