<svg width="263" height="263" viewBox="0 0 263 263" fill="none" xmlns="http://www.w3.org/2000/svg">
<path d="M131.413 0C58.8178 0 0 58.8178 0 131.413C0 204.008 58.8178 262.826 131.413 262.826C204.008 262.826 262.826 204.008 262.826 131.413C262.826 58.8178 204.008 0 131.413 0ZM131.413 237.391C72.8599 237.391 25.4347 189.966 25.4347 131.413C25.4347 72.8599 72.8599 25.4347 131.413 25.4347C189.966 25.4347 237.391 72.8599 237.391 131.413C237.391 189.966 189.966 237.391 131.413 237.391ZM185.356 98.4536L152.396 131.413L185.356 164.372C187.846 166.862 187.846 170.89 185.356 173.38L173.38 185.356C170.89 187.846 166.862 187.846 164.372 185.356L131.413 152.396L98.4536 185.356C95.9632 187.846 91.936 187.846 89.4455 185.356L77.47 173.38C74.9795 170.89 74.9795 166.862 77.47 164.372L110.429 131.413L77.47 98.4536C74.9795 95.9632 74.9795 91.936 77.47 89.4455L89.4455 77.47C91.936 74.9795 95.9632 74.9795 98.4536 77.47L131.413 110.429L164.372 77.47C166.862 74.9795 170.89 74.9795 173.38 77.47L185.356 89.4455C187.846 91.936 187.846 95.9632 185.356 98.4536Z" fill="#231A3C"/>
</svg>
