<svg width="263" height="205" viewBox="0 0 263 205" fill="none" xmlns="http://www.w3.org/2000/svg">
<path d="M0 182.518C0 194.61 9.81033 204.42 21.9021 204.42H240.924C253.015 204.42 262.826 194.61 262.826 182.518V102.21H0V182.518ZM87.6086 151.49C87.6086 148.478 90.0725 146.014 93.0841 146.014H155.14C158.152 146.014 160.616 148.478 160.616 151.49V169.742C160.616 172.753 158.152 175.217 155.14 175.217H93.0841C90.0725 175.217 87.6086 172.753 87.6086 169.742V151.49ZM29.2029 151.49C29.2029 148.478 31.6668 146.014 34.6784 146.014H67.5316C70.5431 146.014 73.0071 148.478 73.0071 151.49V169.742C73.0071 172.753 70.5431 175.217 67.5316 175.217H34.6784C31.6668 175.217 29.2029 172.753 29.2029 169.742V151.49ZM262.826 21.9021V43.8043H0V21.9021C0 9.81033 9.81033 0 21.9021 0H240.924C253.015 0 262.826 9.81033 262.826 21.9021Z" fill="#231A3C"/>
</svg>
