<svg width="263" height="205" viewBox="0 0 263 205" fill="none" xmlns="http://www.w3.org/2000/svg">
<path d="M220.345 172.16C220.345 175.263 218.246 177.499 215.234 177.499C212.131 177.499 210.124 175.126 210.124 172.16C210.124 169.194 212.131 166.821 215.234 166.821C218.246 166.821 220.345 169.194 220.345 172.16ZM78.5283 166.821C75.2886 166.821 73.4178 169.194 73.4178 172.16C73.4178 175.126 75.2886 177.499 78.5283 177.499C81.4942 177.499 83.5019 175.263 83.5019 172.16C83.4563 169.194 81.4942 166.821 78.5283 166.821ZM132.143 166.684C129.679 166.684 128.173 168.281 127.808 170.654H136.523C136.113 168.053 134.516 166.684 132.143 166.684ZM181.331 166.821C178.229 166.821 176.358 169.194 176.358 172.16C176.358 175.126 178.229 177.499 181.331 177.499C184.434 177.499 186.442 175.263 186.442 172.16C186.442 169.194 184.434 166.821 181.331 166.821ZM229.653 178.731C229.653 178.867 229.79 178.959 229.79 179.232C229.79 179.369 229.653 179.461 229.653 179.734C229.516 179.871 229.516 179.963 229.425 180.099C229.288 180.236 229.197 180.328 228.923 180.328C228.786 180.464 228.695 180.464 228.421 180.464C228.284 180.464 228.193 180.464 227.919 180.328C227.782 180.328 227.691 180.191 227.554 180.099C227.417 179.963 227.326 179.871 227.326 179.734C227.189 179.506 227.189 179.369 227.189 179.232C227.189 179.004 227.189 178.867 227.326 178.731C227.326 178.502 227.463 178.366 227.554 178.229C227.691 178.092 227.782 178.092 227.919 178.001C228.147 177.864 228.284 177.864 228.421 177.864C228.649 177.864 228.786 177.864 228.923 178.001C229.151 178.137 229.288 178.137 229.425 178.229C229.562 178.32 229.516 178.502 229.653 178.731ZM228.649 179.369C228.877 179.369 228.877 179.232 229.014 179.232C229.151 179.096 229.151 179.004 229.151 178.867C229.151 178.731 229.151 178.639 229.014 178.502C228.877 178.502 228.786 178.366 228.512 178.366H227.782V179.963H228.147V179.324H228.284L228.786 179.963H229.151L228.649 179.369ZM262.826 21.9021V182.518C262.826 194.61 253.015 204.42 240.924 204.42H21.9021C9.81033 204.42 0 194.61 0 182.518V21.9021C0 9.81033 9.81033 0 21.9021 0H240.924C253.015 0 262.826 9.81033 262.826 21.9021ZM29.2029 85.6009C29.2029 120.507 57.5387 148.798 92.3996 148.798C104.811 148.798 116.994 145.056 127.306 138.257C94.0423 111.199 94.2705 60.1396 127.306 33.0814C116.994 26.2369 104.811 22.541 92.3996 22.541C57.5387 22.4953 29.2029 50.8312 29.2029 85.6009ZM131.413 135.246C163.582 110.149 163.445 61.2347 131.413 36.0016C99.381 61.2347 99.2441 110.195 131.413 135.246ZM66.4821 170.061C66.4821 166.091 63.8812 163.49 59.7746 163.353C57.6756 163.353 55.4398 163.992 53.934 166.319C52.8389 164.449 50.9681 163.353 48.3672 163.353C46.6333 163.353 44.8994 163.992 43.5305 165.817V163.81H39.7889V180.556H43.5305C43.5305 171.932 42.3898 166.776 47.6372 166.776C52.2914 166.776 51.3788 171.43 51.3788 180.556H54.9835C54.9835 172.206 53.8428 166.776 59.0901 166.776C63.7443 166.776 62.8318 171.339 62.8318 180.556H66.5734V170.061H66.4821ZM86.9697 163.81H83.365V165.817C82.133 164.312 80.3991 163.353 78.0264 163.353C73.3265 163.353 69.7218 167.095 69.7218 172.16C69.7218 177.27 73.3265 180.966 78.0264 180.966C80.3991 180.966 82.133 180.099 83.365 178.502V180.601H86.9697V163.81ZM105.45 175.491C105.45 168.646 95.0005 171.749 95.0005 168.555C95.0005 165.954 100.43 166.365 103.442 168.053L104.948 165.087C100.659 162.304 91.1676 162.35 91.1676 168.829C91.1676 175.354 101.617 172.616 101.617 175.673C101.617 178.548 95.4568 178.32 92.1715 176.038L90.5745 178.913C95.685 182.381 105.45 181.651 105.45 175.491ZM121.602 179.734L120.599 176.632C118.865 177.59 115.032 178.639 115.032 174.761V167.186H121.009V163.81H115.032V158.699H111.29V163.81H107.822V167.141H111.29V174.761C111.29 182.792 119.184 181.331 121.602 179.734ZM127.671 173.62H140.219C140.219 166.228 136.843 163.308 132.28 163.308C127.443 163.308 123.975 166.913 123.975 172.114C123.975 181.468 134.287 183.02 139.398 178.594L137.664 175.856C134.105 178.776 128.721 178.502 127.671 173.62ZM154.638 163.81C152.539 162.897 149.345 162.988 147.703 165.817V163.81H143.961V180.556H147.703V171.11C147.703 165.817 152.037 166.502 153.543 167.278L154.638 163.81ZM159.475 172.16C159.475 166.958 164.768 165.27 168.92 168.327L170.654 165.361C165.361 161.209 155.733 163.49 155.733 172.206C155.733 181.24 165.954 183.065 170.654 179.05L168.92 176.084C164.722 179.05 159.475 177.27 159.475 172.16ZM189.91 163.81H186.168V165.817C182.381 160.798 172.525 163.627 172.525 172.16C172.525 180.921 182.746 183.43 186.168 178.502V180.601H189.91V163.81ZM205.287 163.81C204.192 163.262 200.268 162.486 198.351 165.817V163.81H194.747V180.556H198.351V171.11C198.351 166.091 202.458 166.411 204.192 167.278L205.287 163.81ZM223.676 157.011H220.071V165.817C216.329 160.844 206.428 163.49 206.428 172.16C206.428 181.012 216.694 183.385 220.071 178.502V180.601H223.676V157.011ZM227.143 122.743V124.842H227.508V122.743H228.375V122.378H226.276V122.743H227.143ZM230.155 179.232C230.155 179.004 230.155 178.731 230.018 178.502C229.881 178.366 229.79 178.137 229.653 178.001C229.516 177.864 229.288 177.772 229.151 177.635C228.923 177.635 228.649 177.499 228.421 177.499C228.284 177.499 228.056 177.635 227.782 177.635C227.554 177.772 227.417 177.864 227.28 178.001C227.052 178.137 226.915 178.366 226.915 178.502C226.778 178.731 226.778 179.004 226.778 179.232C226.778 179.369 226.778 179.598 226.915 179.871C226.915 180.008 227.052 180.236 227.28 180.373C227.417 180.51 227.508 180.601 227.782 180.738C228.01 180.875 228.284 180.875 228.421 180.875C228.649 180.875 228.923 180.875 229.151 180.738C229.288 180.601 229.516 180.51 229.653 180.373C229.79 180.236 229.881 180.008 230.018 179.871C230.155 179.598 230.155 179.369 230.155 179.232ZM231.615 122.333H230.976L230.246 123.93L229.516 122.333H228.877V124.797H229.242V122.926L229.972 124.523H230.474L231.113 122.926V124.797H231.615V122.333ZM233.623 85.6009C233.623 50.8312 205.287 22.4953 170.426 22.4953C158.015 22.4953 145.832 26.2369 135.519 33.0357C168.418 60.094 168.92 111.29 135.519 138.212C145.832 145.056 158.106 148.752 170.426 148.752C205.287 148.798 233.623 120.507 233.623 85.6009Z" fill="#231A3C"/>
</svg>
