<svg width="263" height="205" viewBox="0 0 263 205" fill="none" xmlns="http://www.w3.org/2000/svg">
<path d="M214.504 90.9395C214.504 90.9395 217.972 107.914 218.748 111.473H203.507C205.013 107.412 210.808 91.6239 210.808 91.6239C210.717 91.7608 212.314 87.4717 213.226 84.8252L214.504 90.9395ZM262.826 21.9021V182.518C262.826 194.61 253.015 204.42 240.924 204.42H21.9021C9.81033 204.42 0 194.61 0 182.518V21.9021C0 9.81033 9.81033 0 21.9021 0H240.924C253.015 0 262.826 9.81033 262.826 21.9021ZM69.5849 136.523L98.4227 65.7064H79.0302L61.0978 114.074L59.1358 104.263L52.7476 71.6839C51.6982 67.1666 48.4585 65.8889 44.4431 65.7064H14.9208L14.6014 67.1209C21.8109 68.9461 28.2446 71.5926 33.8571 74.9236L50.1924 136.523H69.5849ZM112.659 136.615L124.158 65.7064H105.815L94.3617 136.615H112.659ZM176.495 113.435C176.586 105.358 171.658 99.1984 161.118 94.1336C154.684 90.8939 150.76 88.7037 150.76 85.3727C150.851 82.3612 154.091 79.2584 161.3 79.2584C167.278 79.1215 171.658 80.536 174.943 81.9505L176.586 82.7262L179.096 67.3947C175.491 65.9802 169.742 64.3832 162.669 64.3832C144.554 64.3832 131.823 74.0566 131.732 87.8367C131.595 98.0121 140.858 103.67 147.794 107.092C154.866 110.56 157.285 112.842 157.285 115.899C157.193 120.644 151.535 122.834 146.288 122.834C138.987 122.834 135.063 121.694 129.086 119.047L126.667 117.907L124.112 133.831C128.401 135.793 136.341 137.527 144.554 137.618C163.81 137.664 176.358 128.128 176.495 113.435ZM240.924 136.615L226.14 65.7064H211.949C207.568 65.7064 204.237 66.984 202.367 71.5926L175.126 136.615H194.381C194.381 136.615 197.53 127.854 198.214 125.983H221.759C222.307 128.493 223.949 136.615 223.949 136.615H240.924Z" fill="#231A3C"/>
</svg>
