<svg width="78" height="89" viewBox="0 0 78 89" fill="none" xmlns="http://www.w3.org/2000/svg">
<path d="M5.57143 80.6563C5.57143 82.8692 6.45191 84.9914 8.01918 86.5562C9.58645 88.1209 11.7121 89 13.9286 89H64.0714C66.2879 89 68.4136 88.1209 69.9808 86.5562C71.5481 84.9914 72.4286 82.8692 72.4286 80.6563V22.25H5.57143V80.6563ZM52.9286 36.1563C52.9286 35.4186 53.2221 34.7112 53.7445 34.1896C54.2669 33.668 54.9755 33.375 55.7143 33.375C56.4531 33.375 57.1617 33.668 57.6841 34.1896C58.2065 34.7112 58.5 35.4186 58.5 36.1563V75.0938C58.5 75.8314 58.2065 76.5388 57.6841 77.0604C57.1617 77.582 56.4531 77.875 55.7143 77.875C54.9755 77.875 54.2669 77.582 53.7445 77.0604C53.2221 76.5388 52.9286 75.8314 52.9286 75.0938V36.1563ZM36.2143 36.1563C36.2143 35.4186 36.5078 34.7112 37.0302 34.1896C37.5526 33.668 38.2612 33.375 39 33.375C39.7388 33.375 40.4474 33.668 40.9698 34.1896C41.4922 34.7112 41.7857 35.4186 41.7857 36.1563V75.0938C41.7857 75.8314 41.4922 76.5388 40.9698 77.0604C40.4474 77.582 39.7388 77.875 39 77.875C38.2612 77.875 37.5526 77.582 37.0302 77.0604C36.5078 76.5388 36.2143 75.8314 36.2143 75.0938V36.1563ZM19.5 36.1563C19.5 35.4186 19.7935 34.7112 20.3159 34.1896C20.8383 33.668 21.5469 33.375 22.2857 33.375C23.0245 33.375 23.7331 33.668 24.2555 34.1896C24.7779 34.7112 25.0714 35.4186 25.0714 36.1563V75.0938C25.0714 75.8314 24.7779 76.5388 24.2555 77.0604C23.7331 77.582 23.0245 77.875 22.2857 77.875C21.5469 77.875 20.8383 77.582 20.3159 77.0604C19.7935 76.5388 19.5 75.8314 19.5 75.0938V36.1563ZM75.2143 5.56253H54.3214L52.6848 2.31194C52.3381 1.617 51.8041 1.03243 51.1428 0.624001C50.4815 0.215567 49.7191 -0.000526345 48.9415 3.04768e-05H29.0411C28.2652 -0.00294729 27.5042 0.212341 26.8452 0.621229C26.1863 1.03012 25.656 1.61607 25.3152 2.31194L23.6786 5.56253H2.78571C2.0469 5.56253 1.33834 5.85555 0.815917 6.37714C0.293494 6.89872 0 7.60614 0 8.34378L0 13.9063C0 14.6439 0.293494 15.3513 0.815917 15.8729C1.33834 16.3945 2.0469 16.6875 2.78571 16.6875H75.2143C75.9531 16.6875 76.6617 16.3945 77.1841 15.8729C77.7065 15.3513 78 14.6439 78 13.9063V8.34378C78 7.60614 77.7065 6.89872 77.1841 6.37714C76.6617 5.85555 75.9531 5.56253 75.2143 5.56253Z" fill="#E16B6B"/>
</svg>
